<?xml version="1.0" encoding="utf-8"?>
<!-- Generator: Adobe Illustrator 18.0.0, SVG Export Plug-In . SVG Version: 6.00 Build 0)  -->
<!DOCTYPE svg PUBLIC "-//W3C//DTD SVG 1.1//EN" "http://www.w3.org/Graphics/SVG/1.1/DTD/svg11.dtd">
<svg version="1.1" id="Layer_1" xmlns="http://www.w3.org/2000/svg" xmlns:xlink="http://www.w3.org/1999/xlink" x="0px" y="0px"
	 viewBox="0 0 200 33" enable-background="new 0 0 200 33" xml:space="preserve">
<rect x="112.6" y="2.3" fill="#FFFFFF" width="9.3" height="28.5"/>
<rect x="80.4" y="2.3" fill="#FFFFFF" width="9.3" height="28.5"/>
<polygon opacity="0.29" fill="#003032" points="80.4,2.3 89.8,30.8 89.8,6.6 "/>
<polygon opacity="0.29" fill="#003032" points="121.9,2.3 112.6,30.8 112.6,6.6 "/>
<path fill="#03B9BE" d="M101.2,20.5l10.6-18.2h10.1l-16.8,28.6h-7.9L80.4,2.3h10.1L101.2,20.5z"/>
<g>
	<g>
		<path fill="#FFFFFF" d="M3.9,21.8H2.2V12h2.6l3,6.2l3-6.2h2.6v9.8h-1.7v-7.7l-3.4,6.8H7.3l-3.4-6.8V21.8z"/>
		<path fill="#FFFFFF" d="M31.7,12v1.6h-5.2v2.6h4.7v1.5h-4.7v2.6h5.4v1.6h-7.1V12H31.7z"/>
		<path fill="#FFFFFF" d="M50,12h1.7v9.8h-1.8l-5.6-7.2v7.2h-1.7V12h1.7l5.7,7.3V12z"/>
		<path fill="#FFFFFF" d="M65.3,19.5c0.4,0.5,1.1,0.8,1.8,0.8c0.8,0,1.4-0.3,1.8-0.8s0.7-1.2,0.7-2.1V12h1.7v5.5
			c0,1.4-0.4,2.5-1.2,3.3c-0.8,0.8-1.8,1.1-3,1.1c-1.2,0-2.2-0.4-3-1.1C63.4,20,63,18.9,63,17.5V12h1.7v5.4
			C64.6,18.3,64.9,19,65.3,19.5z"/>
		<path fill="#FFFFFF" d="M137.3,21.8h-1.9l-3.9-9.8h1.9l3,7.3l3-7.3h1.9L137.3,21.8z"/>
		<path fill="#FFFFFF" d="M158.3,12v1.6H153v2.6h4.7v1.5H153v2.6h5.4v1.6h-7.1V12H158.3z"/>
		<path fill="#FFFFFF" d="M176.6,12h1.7v9.8h-1.8l-5.6-7.2v7.2h-1.7V12h1.7l5.7,7.3V12z"/>
		<path fill="#FFFFFF" d="M191.9,19.5c0.4,0.5,1.1,0.8,1.8,0.8c0.8,0,1.4-0.3,1.8-0.8s0.7-1.2,0.7-2.1V12h1.7v5.5
			c0,1.4-0.4,2.5-1.2,3.3c-0.8,0.8-1.8,1.1-3,1.1c-1.2,0-2.2-0.4-3-1.1c-0.8-0.8-1.2-1.9-1.2-3.3V12h1.7v5.4
			C191.3,18.3,191.5,19,191.9,19.5z"/>
	</g>
</g>
</svg>
